<svg id="visual" viewBox="0 0 900 600" width="900" height="600" xmlns="http://www.w3.org/2000/svg" xmlns:xlink="http://www.w3.org/1999/xlink" version="1.1"><rect x="0" y="0" width="900" height="600" fill="#359B44"></rect><path d="M0 405L21.5 423.8C43 442.7 86 480.3 128.8 479.2C171.7 478 214.3 438 257.2 414.8C300 391.7 343 385.3 385.8 402.3C428.7 419.3 471.3 459.7 514.2 462.5C557 465.3 600 430.7 642.8 432.2C685.7 433.7 728.3 471.3 771.2 471.5C814 471.7 857 434.3 878.5 415.7L900 397L900 601L878.5 601C857 601 814 601 771.2 601C728.3 601 685.7 601 642.8 601C600 601 557 601 514.2 601C471.3 601 428.7 601 385.8 601C343 601 300 601 257.2 601C214.3 601 171.7 601 128.8 601C86 601 43 601 21.5 601L0 601Z" fill="#FDC349" stroke-linecap="round" stroke-linejoin="miter"></path></svg>